<svg width="40" height="25" viewBox="0 0 17 13" fill="none" xmlns="http://www.w3.org/2000/svg">
<path d="M8.49974 7.74524C8.30031 7.74557 8.10603 7.68367 7.94549 7.56863L0.376998 2.13467C0.278524 2.06391 0.195351 1.97498 0.132227 1.87296C0.069103 1.77094 0.0272642 1.65784 0.00909954 1.5401C-0.0275856 1.30232 0.0343859 1.06011 0.181381 0.866747C0.328377 0.67339 0.548355 0.544725 0.792923 0.509057C1.03749 0.47339 1.28661 0.533642 1.48549 0.676559L8.49974 5.7075L15.514 0.67656C15.6125 0.605795 15.7243 0.55458 15.8431 0.52584C15.962 0.4971 16.0855 0.491398 16.2066 0.509058C16.3277 0.526719 16.444 0.567397 16.5489 0.628769C16.6538 0.690142 16.7453 0.771007 16.8181 0.866748C16.8909 0.962489 16.9436 1.07123 16.9731 1.18677C17.0027 1.3023 17.0085 1.42236 16.9904 1.5401C16.9722 1.65784 16.9304 1.77094 16.8672 1.87296C16.8041 1.97498 16.721 2.06391 16.6225 2.13467L9.05398 7.56863C8.89344 7.68367 8.69917 7.74557 8.49974 7.74524Z" fill="#ffffff"/>
<path d="M8.49998 12.5001C8.30055 12.5005 8.10628 12.4386 7.94574 12.3235L0.377242 6.88955C0.178366 6.74664 0.0460289 6.53276 0.00934368 6.29498C-0.0273415 6.0572 0.0346301 5.81499 0.181625 5.62163C0.328621 5.42827 0.548599 5.29961 0.793167 5.26394C1.03773 5.22827 1.28686 5.28853 1.48574 5.43144L8.49998 10.4624L15.5142 5.43144C15.7131 5.28853 15.9622 5.22827 16.2068 5.26394C16.4514 5.29961 16.6713 5.42827 16.8183 5.62163C16.9653 5.81499 17.0273 6.0572 16.9906 6.29498C16.9539 6.53276 16.8216 6.74664 16.6227 6.88956L9.05423 12.3235C8.89369 12.4386 8.69941 12.5005 8.49998 12.5001Z" fill="#ffffff"/>
</svg>
